<svg width="35" height="35" viewBox="0 0 35 35" fill="none" xmlns="http://www.w3.org/2000/svg">
<g clip-path="url(#clip0)">
<path d="M24.065 34.555H5.48901C4.11001 34.555 2.98901 33.433 2.98901 32.055V7.864C2.98901 6.486 4.11001 5.364 5.48901 5.364H7.85301C8.12901 5.364 8.35301 5.588 8.35301 5.864C8.35301 6.14 8.12901 6.364 7.85301 6.364H5.48901C4.66201 6.364 3.98901 7.037 3.98901 7.864V32.054C3.98901 32.881 4.66201 33.554 5.48901 33.554H24.065C24.892 33.554 25.565 32.881 25.565 32.054V29.689C25.565 29.413 25.789 29.189 26.065 29.189C26.341 29.189 26.565 29.413 26.565 29.689V32.054C26.565 33.433 25.444 34.555 24.065 34.555Z" fill="white"/>
<path d="M29.065 29.19H10.489C9.11001 29.19 7.98901 28.068 7.98901 26.69V2.5C7.98901 1.122 9.11001 0 10.489 0H24.093C24.369 0 24.593 0.224 24.593 0.5C24.593 0.776 24.37 1 24.094 1H10.489C9.66201 1 8.98901 1.673 8.98901 2.5V26.69C8.98901 27.517 9.66201 28.19 10.489 28.19H29.065C29.892 28.19 30.565 27.517 30.565 26.69V7.661C30.565 7.385 30.789 7.161 31.065 7.161C31.341 7.161 31.565 7.385 31.565 7.661V26.69C31.565 28.069 30.444 29.19 29.065 29.19Z" fill="white"/>
<path d="M31.065 8.161H24.093C23.817 8.161 23.593 7.937 23.593 7.661V0.688004C23.593 0.412004 23.817 0.188004 24.093 0.188004C24.369 0.188004 24.593 0.412004 24.593 0.688004V7.161H31.065C31.341 7.161 31.565 7.385 31.565 7.661C31.565 7.937 31.342 8.161 31.065 8.161Z" fill="white"/>
<path d="M31.065 8.161C30.935 8.161 30.805 8.11 30.707 8.01L23.735 0.848997C23.543 0.650997 23.547 0.334997 23.745 0.141997C23.942 -0.049003 24.261 -0.0450031 24.452 0.151997L31.424 7.313C31.616 7.511 31.612 7.827 31.414 8.02C31.317 8.114 31.191 8.161 31.065 8.161Z" fill="white"/>
</g>
<defs>
<clipPath id="clip0">
<rect width="34.555" height="34.555" fill="white"/>
</clipPath>
</defs>
</svg>
